<svg width="32" height="32" viewBox="0 0 32 32" fill="none" xmlns="http://www.w3.org/2000/svg">
<g id="vuesax/linear/copy">
<g id="copy">
<path id="Vector" d="M21.3333 17.2001V22.8001C21.3333 27.4667 19.4666 29.3334 14.8 29.3334H9.19996C4.53329 29.3334 2.66663 27.4667 2.66663 22.8001V17.2001C2.66663 12.5334 4.53329 10.6667 9.19996 10.6667H14.8C19.4666 10.6667 21.3333 12.5334 21.3333 17.2001Z" stroke="#120B48" stroke-width="2.5" stroke-linecap="round" stroke-linejoin="round"/>
<path id="Vector_2" d="M29.3333 9.20008V14.8001C29.3333 19.4667 27.4666 21.3334 22.8 21.3334H21.3333V17.2001C21.3333 12.5334 19.4666 10.6667 14.8 10.6667H10.6666V9.20008C10.6666 4.53341 12.5333 2.66675 17.2 2.66675H22.8C27.4666 2.66675 29.3333 4.53341 29.3333 9.20008Z" stroke="#120B48" stroke-width="2.5" stroke-linecap="round" stroke-linejoin="round"/>
</g>
</g>
</svg>
