<svg width="35" height="36" viewBox="0 0 35 36" fill="none" xmlns="http://www.w3.org/2000/svg">
<g id="Extensions button">
<path id="Vector" d="M24.0952 17.119H22.9524V14.0714C22.9524 13.2333 22.2667 12.5476 21.4286 12.5476H18.381V11.4048C18.381 10.8996 18.1803 10.4151 17.8231 10.0579C17.4658 9.70068 16.9814 9.5 16.4762 9.5C15.971 9.5 15.4865 9.70068 15.1293 10.0579C14.7721 10.4151 14.5714 10.8996 14.5714 11.4048V12.5476H11.5238C10.6857 12.5476 10.0076 13.2333 10.0076 14.0714V16.9667H11.1429C12.2781 16.9667 13.2 17.8886 13.2 19.0238C13.2 20.159 12.2781 21.081 11.1429 21.081H10V23.9762C10 24.8143 10.6857 25.5 11.5238 25.5H14.419V24.3571C14.419 23.2219 15.341 22.3 16.4762 22.3C17.6114 22.3 18.5333 23.2219 18.5333 24.3571V25.5H21.4286C22.2667 25.5 22.9524 24.8143 22.9524 23.9762V20.9286H24.0952C24.6004 20.9286 25.0849 20.7279 25.4421 20.3707C25.7993 20.0135 26 19.529 26 19.0238C26 18.5186 25.7993 18.0342 25.4421 17.6769C25.0849 17.3197 24.6004 17.119 24.0952 17.119Z" fill="#212222"/>
</g>
</svg>
