<svg width="35" height="36" viewBox="0 0 35 36" fill="none" xmlns="http://www.w3.org/2000/svg">
<g id="More button">
<path id="Vector" d="M18 13.5C19.1 13.5 20 12.6 20 11.5C20 10.4 19.1 9.5 18 9.5C16.9 9.5 16 10.4 16 11.5C16 12.6 16.9 13.5 18 13.5ZM18 15.5C16.9 15.5 16 16.4 16 17.5C16 18.6 16.9 19.5 18 19.5C19.1 19.5 20 18.6 20 17.5C20 16.4 19.1 15.5 18 15.5ZM18 21.5C16.9 21.5 16 22.4 16 23.5C16 24.6 16.9 25.5 18 25.5C19.1 25.5 20 24.6 20 23.5C20 22.4 19.1 21.5 18 21.5Z" fill="#5F6367"/>
</g>
</svg>
